<?xml version="1.0" encoding="UTF-8" standalone="no"?>
<!-- Created with Inkscape (http://www.inkscape.org/) -->

<svg
   xmlns:dc="http://purl.org/dc/elements/1.1/"
   xmlns:cc="http://creativecommons.org/ns#"
   xmlns:rdf="http://www.w3.org/1999/02/22-rdf-syntax-ns#"
   xmlns:svg="http://www.w3.org/2000/svg"
   xmlns="http://www.w3.org/2000/svg"
   xmlns:sodipodi="http://sodipodi.sourceforge.net/DTD/sodipodi-0.dtd"
   xmlns:inkscape="http://www.inkscape.org/namespaces/inkscape"
   width="210mm"
   height="297mm"
   viewBox="0 0 210 297"
   version="1.1"
   id="svg8"
   inkscape:version="0.92.2 (5c3e80d, 2017-08-06)"
   sodipodi:docname="cmf-logo-2018.svg">
  <defs
     id="defs2">
    <filter
       inkscape:collect="always"
       style="color-interpolation-filters:sRGB"
       id="filter1112"
       x="-0.0074550106"
       width="1.01491"
       y="-0.030742088"
       height="1.0614842">
      <feGaussianBlur
         inkscape:collect="always"
         stdDeviation="0.24773306"
         id="feGaussianBlur1114" />
    </filter>
  </defs>
  <sodipodi:namedview
     id="base"
     pagecolor="#ffffff"
     bordercolor="#666666"
     borderopacity="1.0"
     inkscape:pageopacity="0.0"
     inkscape:pageshadow="2"
     inkscape:zoom="1.979899"
     inkscape:cx="136.58915"
     inkscape:cy="912.99819"
     inkscape:document-units="px"
     inkscape:current-layer="layer1"
     showgrid="false"
     inkscape:window-width="1842"
     inkscape:window-height="1051"
     inkscape:window-x="1989"
     inkscape:window-y="-9"
     inkscape:window-maximized="1" />
  <metadata
     id="metadata5">
    <rdf:RDF>
      <cc:Work
         rdf:about="">
        <dc:format>image/svg+xml</dc:format>
        <dc:type
           rdf:resource="http://purl.org/dc/dcmitype/StillImage" />
        <dc:title></dc:title>
      </cc:Work>
    </rdf:RDF>
  </metadata>
  <g
     inkscape:label="Ebene 1"
     inkscape:groupmode="layer"
     id="layer1">
    <rect
       style="fill:#1f6992;fill-opacity:1;stroke-width:0.2040966;stroke-miterlimit:4;stroke-dasharray:none"
       id="rect831"
       width="64.823067"
       height="18.125877"
       x="10.961266"
       y="35.835819"
       inkscape:export-xdpi="96"
       inkscape:export-ydpi="96" />
    <path
       style="opacity:0.194;fill:#f2f2f2;fill-opacity:1;stroke-width:0.15868424;stroke-miterlimit:4;stroke-dasharray:none"
       d="m 61.670707,47.65013 c -7.649368,0 -9.439206,5.724521 -16.391056,5.724521 -6.95185,0 -11.513873,-5.708559 -19.657591,-5.708559 -8.143717,0 -14.660972,5.539708 -14.660972,5.539708 v 3.870951 c 0,0 6.517255,-5.539709 14.660972,-5.539709 8.143718,0 12.705741,5.708559 19.657591,5.708559 6.95185,0 8.741688,-5.72452 16.391056,-5.72452 8.635365,0 14.222045,2.840208 14.222045,2.840208 l -0.02773,-3.884391 C 75.716161,50.402025 70.189081,47.65013 61.670702,47.65013 Z"
       id="rect849"
       inkscape:connector-curvature="0" />
    <path
       id="path1135"
       d="m 61.670707,45.929708 c -7.649368,0 -9.439206,5.724521 -16.391056,5.724521 -6.95185,0 -11.513873,-5.708559 -19.657591,-5.708559 -8.143717,0 -14.660972,5.539707 -14.660972,5.539707 v 3.870951 c 0,0 6.517255,-5.539709 14.660972,-5.539709 8.143718,0 12.705741,5.708559 19.657591,5.708559 6.95185,0 8.741688,-5.724519 16.391056,-5.724519 8.635365,0 14.222045,2.840208 14.222045,2.840208 l -0.02773,-3.884392 c -0.148865,-0.07487 -5.675945,-2.826767 -14.194324,-2.826767 z"
       style="opacity:0.194;fill:#f2f2f2;fill-opacity:1;stroke-width:0.15868424;stroke-miterlimit:4;stroke-dasharray:none"
       inkscape:connector-curvature="0" />
    <path
       inkscape:connector-curvature="0"
       style="opacity:0.194;fill:#f2f2f2;fill-opacity:1;stroke-width:0.15868424;stroke-miterlimit:4;stroke-dasharray:none"
       d="m 61.670707,44.639391 c -7.649368,0 -9.439206,5.724521 -16.391056,5.724521 -6.95185,0 -11.513873,-5.708559 -19.657591,-5.708559 -8.143717,0 -14.660972,5.539707 -14.660972,5.539707 v 3.870951 c 0,0 6.517255,-5.539709 14.660972,-5.539709 8.143718,0 12.705741,5.70856 19.657591,5.70856 6.95185,0 8.741688,-5.72452 16.391056,-5.72452 8.635365,0 14.222045,2.840209 14.222045,2.840209 l -0.02773,-3.884392 c -0.14886,-0.07488 -5.67594,-2.826768 -14.194319,-2.826768 z"
       id="path1137" />
    <path
       id="path1139"
       d="m 61.670707,33.456643 c -7.649368,0 -9.439206,5.724521 -16.391056,5.724521 -6.95185,0 -11.513873,-5.708559 -19.657591,-5.708559 -8.143717,0 -14.660972,5.539708 -14.660972,5.539708 v 3.870951 c 0,0 6.517255,-5.539709 14.660972,-5.539709 8.143718,0 12.705741,5.70856 19.657591,5.70856 6.95185,0 8.741688,-5.724521 16.391056,-5.724521 8.635365,0 14.222045,2.840209 14.222045,2.840209 l -0.02773,-3.884391 c -0.148865,-0.07487 -5.675945,-2.826769 -14.194324,-2.826769 z"
       style="opacity:0.194;fill:#f2f2f2;fill-opacity:1;stroke-width:0.15868424;stroke-miterlimit:4;stroke-dasharray:none"
       inkscape:connector-curvature="0" />
    <path
       inkscape:connector-curvature="0"
       style="opacity:0.194;fill:#f2f2f2;fill-opacity:1;stroke-width:0.15868424;stroke-miterlimit:4;stroke-dasharray:none"
       d="m 61.670707,34.746961 c -7.649368,0 -9.439206,5.724521 -16.391056,5.724521 -6.95185,0 -11.513873,-5.70856 -19.657591,-5.70856 -8.143717,0 -14.660972,5.539709 -14.660972,5.539709 v 3.870951 c 0,0 6.517255,-5.539709 14.660972,-5.539709 8.143718,0 12.705741,5.708559 19.657591,5.708559 6.95185,0 8.741688,-5.72452 16.391056,-5.72452 8.635365,0 14.222045,2.840208 14.222045,2.840208 l -0.02773,-3.884391 c -0.148865,-0.07487 -5.675945,-2.826768 -14.194324,-2.826768 z"
       id="path1141" />
    <text
       xml:space="preserve"
       style="font-style:normal;font-variant:normal;font-weight:normal;font-stretch:normal;font-size:5.1219964px;line-height:1.25;font-family:sans-serif;-inkscape-font-specification:'sans-serif, Normal';font-variant-ligatures:normal;font-variant-caps:normal;font-variant-numeric:normal;font-feature-settings:normal;text-align:end;letter-spacing:0px;word-spacing:0px;writing-mode:lr-tb;text-anchor:end;fill:#ffffff;fill-opacity:1;stroke:none;stroke-width:0.12805018"
       x="75.224731"
       y="40.16465"
       id="text821"
       transform="scale(0.99970058,1.0002995)"><tspan
         sodipodi:role="line"
         x="75.224731"
         y="40.16465"
         style="font-style:normal;font-variant:normal;font-weight:normal;font-stretch:normal;font-size:5.1219964px;font-family:sans-serif;-inkscape-font-specification:'sans-serif, Normal';font-variant-ligatures:normal;font-variant-caps:normal;font-variant-numeric:normal;font-feature-settings:normal;text-align:end;writing-mode:lr-tb;text-anchor:end;fill:#ffffff;stroke-width:0.12805018"
         id="tspan823">catchment</tspan><tspan
         sodipodi:role="line"
         x="75.224731"
         y="46.567146"
         style="font-style:normal;font-variant:normal;font-weight:normal;font-stretch:normal;font-size:5.1219964px;font-family:sans-serif;-inkscape-font-specification:'sans-serif, Normal';font-variant-ligatures:normal;font-variant-caps:normal;font-variant-numeric:normal;font-feature-settings:normal;text-align:end;writing-mode:lr-tb;text-anchor:end;fill:#ffffff;stroke-width:0.12805018"
         id="tspan827">modelling</tspan><tspan
         sodipodi:role="line"
         x="75.224731"
         y="52.969643"
         style="font-style:normal;font-variant:normal;font-weight:normal;font-stretch:normal;font-size:5.1219964px;font-family:sans-serif;-inkscape-font-specification:'sans-serif, Normal';font-variant-ligatures:normal;font-variant-caps:normal;font-variant-numeric:normal;font-feature-settings:normal;text-align:end;writing-mode:lr-tb;text-anchor:end;fill:#ffffff;stroke-width:0.12805018"
         id="tspan829">framework</tspan></text>
    <path
       id="path1143"
       d="m 61.670707,36.037279 c -7.649368,0 -9.439206,5.72452 -16.391056,5.72452 -6.95185,0 -11.513873,-5.708559 -19.657591,-5.708559 -8.143717,0 -14.660972,5.539709 -14.660972,5.539709 v 3.870949 c 0,0 6.517255,-5.539707 14.660972,-5.539707 8.143718,0 12.705741,5.708559 19.657591,5.708559 6.95185,0 8.741688,-5.724521 16.391056,-5.724521 8.635365,0 14.222045,2.840209 14.222045,2.840209 l -0.02773,-3.884391 c -0.148865,-0.07487 -5.675945,-2.826768 -14.194324,-2.826768 z"
       style="opacity:0.194;fill:#f2f2f2;fill-opacity:1;stroke-width:0.15868424;stroke-miterlimit:4;stroke-dasharray:none"
       inkscape:connector-curvature="0" />
    <text
       xml:space="preserve"
       style="font-style:normal;font-variant:normal;font-weight:bold;font-stretch:normal;font-size:22.33968544px;line-height:1.25;font-family:monospace;-inkscape-font-specification:'monospace, Bold';font-variant-ligatures:normal;font-variant-caps:normal;font-variant-numeric:normal;font-feature-settings:normal;text-align:start;letter-spacing:0px;word-spacing:0px;writing-mode:lr-tb;text-anchor:start;fill:#ffffff;fill-opacity:1;stroke:none;stroke-width:0.55849051"
       x="11.75264"
       y="47.025528"
       id="text817"
       transform="scale(0.89119704,1.1220863)"><tspan
         sodipodi:role="line"
         id="tspan815"
         x="11.75264"
         y="47.025528"
         style="font-style:normal;font-variant:normal;font-weight:bold;font-stretch:normal;font-size:22.33968544px;font-family:monospace;-inkscape-font-specification:'monospace, Bold';font-variant-ligatures:normal;font-variant-caps:normal;font-variant-numeric:normal;font-feature-settings:normal;text-align:start;writing-mode:lr-tb;text-anchor:start;fill:#ffffff;stroke-width:0.55849051">cmf</tspan></text>
  </g>
</svg>
