<?xml version="1.0" encoding="UTF-8" standalone="no"?>
<!DOCTYPE svg PUBLIC "-//W3C//DTD SVG 1.0//EN"
 "http://www.w3.org/TR/2001/REC-SVG-20010904/DTD/svg10.dtd" [
 <!ATTLIST svg xmlns:xlink CDATA #FIXED "http://www.w3.org/1999/xlink">
]>
<!-- Generated by Graphviz version 2.18 (Fri Mar 28 18:30:32 GMT 2008)
     For user: philkraf -->
<!-- Title: G Pages: 1 -->
<svg width="502pt" height="396pt"
 viewBox="0.00 0.00 502.00 396.00" xmlns="http://www.w3.org/2000/svg" xmlns:xlink="http://www.w3.org/1999/xlink">
<g id="graph0" class="graph" transform="scale(1 1) rotate(0) translate(4 392)">
<title>G</title>
<polygon style="fill:white;stroke:white;" points="-4,4 -4,-392 498,-392 498,4 -4,4"/>
<!-- SurfaceWater(4) -->
<g id="node1" class="node"><title>SurfaceWater(4)</title>
<polygon style="fill:none;stroke:black;" points="307,-388 203,-388 199,-384 199,-352 303,-352 307,-356 307,-388"/>
<polyline style="fill:none;stroke:black;" points="303,-384 199,-384 "/>
<polyline style="fill:none;stroke:black;" points="303,-384 303,-352 "/>
<polyline style="fill:none;stroke:black;" points="303,-384 307,-388 "/>
<text text-anchor="middle" x="253" y="-365.4" style="font-family:Times New Roman;font-size:14.00;">SurfaceWater(4)</text>
</g>
<!-- Precipitation(0) -->
<g id="node3" class="node"><title>Precipitation(0)</title>
<polygon style="fill:none;stroke:black;" points="79.7405,-0.0493367 84.2033,-0.147875 88.62,-0.295345 92.9724,-0.491342 97.2431,-0.735329 101.415,-1.02664 105.471,-1.36447 109.396,-1.7479 113.175,-2.17587 116.794,-2.64722 120.24,-3.16064 123.5,-3.71474 126.565,-4.308 129.424,-4.93879 132.068,-5.60537 134.491,-6.30593 136.687,-7.03854 138.65,-7.80119 140.378,-8.5918 141.868,-9.4082 143.119,-10.2481 144.132,-11.1093 144.908,-11.9894 145.449,-12.886 145.759,-13.7965 145.842,-14.7186 145.704,-15.6497 145.352,-16.5873 144.792,-17.5287 144.032,-18.4713 143.081,-19.4127 141.946,-20.3503 140.638,-21.2814 139.167,-22.2035 137.541,-23.114 135.77,-24.0106 133.865,-24.8907 131.835,-25.7519 129.691,-26.5918 127.441,-27.4082 125.095,-28.1988 122.662,-28.9615 120.15,-29.6941 117.568,-30.3946 114.924,-31.0612 112.224,-31.692 109.475,-32.2853 106.684,-32.8394 103.857,-33.3528 100.998,-33.8241 98.1122,-34.2521 95.204,-34.6355 92.2772,-34.9734 89.335,-35.2647 86.3806,-35.5087 83.4165,-35.7047 80.4453,-35.8521 77.4691,-35.9507 74.49,-36 71.51,-36 68.5309,-35.9507 65.5547,-35.8521 62.5835,-35.7047 59.6194,-35.5087 56.665,-35.2647 53.7228,-34.9734 50.796,-34.6355 47.8878,-34.2521 45.0022,-33.8241 42.1432,-33.3528 39.3157,-32.8394 36.5248,-32.2853 33.7763,-31.692 31.0764,-31.0612 28.4318,-30.3946 25.8499,-29.6941 23.3382,-28.9615 20.9051,-28.1988 18.5591,-27.4082 16.3091,-26.5918 14.1646,-25.7519 12.1349,-24.8907 10.2299,-24.0106 8.45938,-23.114 6.83331,-22.2035 5.36151,-21.2814 4.05373,-20.3503 2.9195,-19.4127 1.96801,-18.4713 1.20811,-17.5287 0.648094,-16.5873 0.295725,-15.6497 0.158069,-14.7186 0.241442,-13.7965 0.551318,-12.886 1.09225,-11.9894 1.86782,-11.1093 2.88053,-10.2481 4.13178,-9.4082 5.62181,-8.5918 7.34966,-7.80119 9.31314,-7.03854 11.5088,-6.30593 13.9319,-5.60537 16.5764,-4.93879 19.4352,-4.308 22.4997,-3.71474 25.7603,-3.16064 29.2059,-2.64722 32.8248,-2.17587 36.6038,-1.7479 40.5289,-1.36447 44.5852,-1.02664 48.7569,-0.735329 53.0276,-0.491342 57.38,-0.295345 61.7967,-0.147875 66.2595,-0.0493367 70.7501,-1.77636e-013 75.2499,-1.84741e-013 79.7405,-0.0493367"/>
<text text-anchor="middle" x="73" y="-13.4" style="font-family:Times New Roman;font-size:14.00;">Precipitation(0)</text>
</g>
<!-- SurfaceWater(4)&#45;&gt;Precipitation(0) -->
<g id="edge2" class="edge"><title>SurfaceWater(4)&#45;&gt;Precipitation(0)</title>
<path style="fill:none;stroke:black;" d="M199,-357C141,-341 57,-313 57,-282 57,-282 57,-282 57,-106 57,-81 63,-54 68,-36"/>
<text text-anchor="middle" x="78" y="-189.4" style="font-family:Times New Roman;font-size:14.00;">Rainfall</text>
</g>
<!-- Reach(5) -->
<g id="node5" class="node"><title>Reach(5)</title>
<polygon style="fill:none;stroke:black;" points="286,-300 224,-300 220,-296 220,-264 282,-264 286,-268 286,-300"/>
<polyline style="fill:none;stroke:black;" points="282,-296 220,-296 "/>
<polyline style="fill:none;stroke:black;" points="282,-296 282,-264 "/>
<polyline style="fill:none;stroke:black;" points="282,-296 286,-300 "/>
<text text-anchor="middle" x="253" y="-277.4" style="font-family:Times New Roman;font-size:14.00;">Reach(5)</text>
</g>
<!-- SurfaceWater(4)&#45;&gt;Reach(5) -->
<g id="edge4" class="edge"><title>SurfaceWater(4)&#45;&gt;Reach(5)</title>
<path style="fill:none;stroke:black;" d="M253,-352C253,-337 253,-315 253,-300"/>
<text text-anchor="middle" x="277" y="-321.4" style="font-family:Times New Roman;font-size:14.00;">Manning</text>
</g>
<!-- Layer 0&#45;0.5m @(0,0,0)(12) -->
<g id="node7" class="node"><title>Layer 0&#45;0.5m @(0,0,0)(12)</title>
<polygon style="fill:none;stroke:black;" points="489,-212 327,-212 323,-208 323,-176 485,-176 489,-180 489,-212"/>
<polyline style="fill:none;stroke:black;" points="485,-208 323,-208 "/>
<polyline style="fill:none;stroke:black;" points="485,-208 485,-176 "/>
<polyline style="fill:none;stroke:black;" points="485,-208 489,-212 "/>
<text text-anchor="middle" x="406" y="-189.4" style="font-family:Times New Roman;font-size:14.00;">Layer 0&#45;0.5m @(0,0,0)(12)</text>
</g>
<!-- SurfaceWater(4)&#45;&gt;Layer 0&#45;0.5m @(0,0,0)(12) -->
<g id="edge6" class="edge"><title>SurfaceWater(4)&#45;&gt;Layer 0&#45;0.5m @(0,0,0)(12)</title>
<path style="fill:none;stroke:black;" d="M284,-352C318,-331 370,-293 396,-246 402,-236 404,-223 405,-212"/>
<text text-anchor="middle" x="438" y="-277.4" style="font-family:Times New Roman;font-size:14.00;">Complete infiltration</text>
</g>
<!-- Reach(5)&#45;&gt;Layer 0&#45;0.5m @(0,0,0)(12) -->
<g id="edge12" class="edge"><title>Reach(5)&#45;&gt;Layer 0&#45;0.5m @(0,0,0)(12)</title>
<path style="fill:none;stroke:black;" d="M277,-264C296,-250 320,-232 325,-230 336,-223 349,-217 361,-212"/>
<text text-anchor="middle" x="360" y="-233.4" style="font-family:Times New Roman;font-size:14.00;">Richards eq.</text>
</g>
<!-- Outlet(6) -->
<g id="node9" class="node"><title>Outlet(6)</title>
<polygon style="fill:none;stroke:black;" points="260.362,-176.049 263.249,-176.148 266.107,-176.295 268.923,-176.491 271.687,-176.735 274.386,-177.027 277.011,-177.364 279.55,-177.748 281.996,-178.176 284.337,-178.647 286.567,-179.161 288.677,-179.715 290.66,-180.308 292.509,-180.939 294.221,-181.605 295.788,-182.306 297.209,-183.039 298.48,-183.801 299.598,-184.592 300.562,-185.408 301.371,-186.248 302.027,-187.109 302.529,-187.989 302.879,-188.886 303.079,-189.797 303.133,-190.719 303.044,-191.65 302.816,-192.587 302.454,-193.529 301.962,-194.471 301.346,-195.413 300.612,-196.35 299.766,-197.281 298.814,-198.203 297.762,-199.114 296.616,-200.011 295.383,-200.891 294.07,-201.752 292.682,-202.592 291.226,-203.408 289.708,-204.199 288.134,-204.961 286.509,-205.694 284.838,-206.395 283.127,-207.061 281.38,-207.692 279.602,-208.285 277.796,-208.839 275.966,-209.353 274.116,-209.824 272.249,-210.252 270.367,-210.636 268.473,-210.973 266.57,-211.265 264.658,-211.509 262.74,-211.705 260.818,-211.852 258.892,-211.951 256.964,-212 255.036,-212 253.108,-211.951 251.182,-211.852 249.26,-211.705 247.342,-211.509 245.43,-211.265 243.527,-210.973 241.633,-210.636 239.751,-210.252 237.884,-209.824 236.034,-209.353 234.204,-208.839 232.398,-208.285 230.62,-207.692 228.873,-207.061 227.162,-206.395 225.491,-205.694 223.866,-204.961 222.292,-204.199 220.774,-203.408 219.318,-202.592 217.93,-201.752 216.617,-200.891 215.384,-200.011 214.238,-199.114 213.186,-198.203 212.234,-197.281 211.388,-196.35 210.654,-195.413 210.038,-194.471 209.546,-193.529 209.184,-192.587 208.956,-191.65 208.867,-190.719 208.921,-189.797 209.121,-188.886 209.471,-187.989 209.973,-187.109 210.629,-186.248 211.438,-185.408 212.402,-184.592 213.52,-183.801 214.791,-183.039 216.212,-182.306 217.779,-181.605 219.491,-180.939 221.34,-180.308 223.323,-179.715 225.433,-179.161 227.663,-178.647 230.004,-178.176 232.45,-177.748 234.989,-177.364 237.614,-177.027 240.313,-176.735 243.077,-176.491 245.893,-176.295 248.751,-176.148 251.638,-176.049 254.544,-176 257.456,-176 260.362,-176.049"/>
<text text-anchor="middle" x="256" y="-189.4" style="font-family:Times New Roman;font-size:14.00;">Outlet(6)</text>
</g>
<!-- Reach(5)&#45;&gt;Outlet(6) -->
<g id="edge8" class="edge"><title>Reach(5)&#45;&gt;Outlet(6)</title>
<path style="fill:none;stroke:black;" d="M253,-264C253,-254 254,-241 254,-230 254,-224 254,-218 255,-212"/>
<text text-anchor="middle" x="278" y="-233.4" style="font-family:Times New Roman;font-size:14.00;">Manning</text>
</g>
<!-- Reach(10) -->
<g id="node11" class="node"><title>Reach(10)</title>
<polygon style="fill:none;stroke:black;" points="191,-212 121,-212 117,-208 117,-176 187,-176 191,-180 191,-212"/>
<polyline style="fill:none;stroke:black;" points="187,-208 117,-208 "/>
<polyline style="fill:none;stroke:black;" points="187,-208 187,-176 "/>
<polyline style="fill:none;stroke:black;" points="187,-208 191,-212 "/>
<text text-anchor="middle" x="154" y="-189.4" style="font-family:Times New Roman;font-size:14.00;">Reach(10)</text>
</g>
<!-- Reach(5)&#45;&gt;Reach(10) -->
<g id="edge10" class="edge"><title>Reach(5)&#45;&gt;Reach(10)</title>
<path style="fill:none;stroke:black;" d="M225,-264C217,-258 208,-252 201,-246 189,-236 178,-223 169,-212"/>
<text text-anchor="middle" x="228" y="-233.4" style="font-family:Times New Roman;font-size:14.00;">Manning</text>
</g>
<!-- SurfaceWater(11) -->
<g id="node14" class="node"><title>SurfaceWater(11)</title>
<polygon style="fill:none;stroke:black;" points="211,-124 101,-124 97,-120 97,-88 207,-88 211,-92 211,-124"/>
<polyline style="fill:none;stroke:black;" points="207,-120 97,-120 "/>
<polyline style="fill:none;stroke:black;" points="207,-120 207,-88 "/>
<polyline style="fill:none;stroke:black;" points="207,-120 211,-124 "/>
<text text-anchor="middle" x="154" y="-101.4" style="font-family:Times New Roman;font-size:14.00;">SurfaceWater(11)</text>
</g>
<!-- Reach(10)&#45;&gt;SurfaceWater(11) -->
<g id="edge14" class="edge"><title>Reach(10)&#45;&gt;SurfaceWater(11)</title>
<path style="fill:none;stroke:black;" d="M154,-176C154,-161 154,-139 154,-124"/>
<text text-anchor="middle" x="178" y="-145.4" style="font-family:Times New Roman;font-size:14.00;">Manning</text>
</g>
<!-- Layer 0&#45;0.5m @(10,0,0.5)(13) -->
<g id="node16" class="node"><title>Layer 0&#45;0.5m @(10,0,0.5)(13)</title>
<polygon style="fill:none;stroke:black;" points="360,-36 182,-36 178,-32 178,-1.06581e-014 356,-2.34245e-016 360,-4 360,-36"/>
<polyline style="fill:none;stroke:black;" points="356,-32 178,-32 "/>
<polyline style="fill:none;stroke:black;" points="356,-32 356,-2.34245e-016 "/>
<polyline style="fill:none;stroke:black;" points="356,-32 360,-36 "/>
<text text-anchor="middle" x="269" y="-13.4" style="font-family:Times New Roman;font-size:14.00;">Layer 0&#45;0.5m @(10,0,0.5)(13)</text>
</g>
<!-- Reach(10)&#45;&gt;Layer 0&#45;0.5m @(10,0,0.5)(13) -->
<g id="edge16" class="edge"><title>Reach(10)&#45;&gt;Layer 0&#45;0.5m @(10,0,0.5)(13)</title>
<path style="fill:none;stroke:black;" d="M183,-176C191,-171 199,-164 206,-158 240,-124 254,-115 269,-70 272,-59 272,-46 272,-36"/>
<text text-anchor="middle" x="295" y="-101.4" style="font-family:Times New Roman;font-size:14.00;">Richards eq.</text>
</g>
<!-- SurfaceWater(11)&#45;&gt;Precipitation(0) -->
<g id="edge18" class="edge"><title>SurfaceWater(11)&#45;&gt;Precipitation(0)</title>
<path style="fill:none;stroke:black;" d="M113,-88C105,-83 97,-77 91,-70 83,-60 79,-47 76,-36"/>
<text text-anchor="middle" x="115" y="-57.4" style="font-family:Times New Roman;font-size:14.00;">Rainfall</text>
</g>
<!-- SurfaceWater(11)&#45;&gt;Layer 0&#45;0.5m @(10,0,0.5)(13) -->
<g id="edge20" class="edge"><title>SurfaceWater(11)&#45;&gt;Layer 0&#45;0.5m @(10,0,0.5)(13)</title>
<path style="fill:none;stroke:black;" d="M150,-88C148,-77 149,-63 156,-54 161,-47 174,-41 190,-36"/>
<text text-anchor="middle" x="213" y="-57.4" style="font-family:Times New Roman;font-size:14.00;">Complete infiltration</text>
</g>
</g>
</svg>
